<svg width="360" height="230"
            viewBox="0 0 360 230"
            fill="none"
            xmlns="http://www.w3.org/2000/svg"
          >
<mask id="mask0_3310_294" style="mask-type:alpha" maskUnits="userSpaceOnUse" x="0" y="0" width="360" height="230">
<rect width="360" height="230" rx="30" fill="#16084C"/>
</mask>
<g mask="url(#mask0_3310_294)">
<g filter="url(#filter0_f_3310_294)">
<ellipse rx="319.505" ry="300.183" transform="matrix(0.999348 -0.0361194 0.0409264 0.999162 632.202 64.5223)" fill="#BC31ED"/>
</g>
<g filter="url(#filter1_f_3310_294)">
<path d="M683.974 377.522C689.11 502.91 585.064 608.468 451.58 613.292C318.096 618.117 205.723 520.381 200.587 394.993C198.246 337.844 218.053 271.829 252.944 216.445C294.606 150.311 357.775 99.3339 430.42 96.7083C501.842 94.1269 488.128 208.364 534.951 269.674C575.638 322.949 681.586 319.224 683.974 377.522Z" fill="#5E38F5"/>
</g>
<g filter="url(#filter2_f_3310_294)">
<ellipse rx="127.804" ry="120.075" transform="matrix(0.770267 -0.637721 0.641419 0.76719 365.462 -0.216876)" fill="#BC31ED"/>
</g>
<rect x="-2" y="0.233398" width="568" height="355" fill="url(#pattern0)" fill-opacity="0.02"/>
</g>
<defs>
<filter id="filter0_f_3310_294" x="47.0108" y="-501.288" width="1170.38" height="1131.62" filterUnits="userSpaceOnUse" color-interpolation-filters="sRGB">
<feFlood flood-opacity="0" result="BackgroundImageFix"/>
<feBlend mode="normal" in="SourceGraphic" in2="BackgroundImageFix" result="shape"/>
<feGaussianBlur stdDeviation="132.826" result="effect1_foregroundBlur_3310_294"/>
</filter>
<filter id="filter1_f_3310_294" x="20.4416" y="-83.293" width="843.673" height="876.715" filterUnits="userSpaceOnUse" color-interpolation-filters="sRGB">
<feFlood flood-opacity="0" result="BackgroundImageFix"/>
<feBlend mode="normal" in="SourceGraphic" in2="BackgroundImageFix" result="shape"/>
<feGaussianBlur stdDeviation="89.9792" result="effect1_foregroundBlur_3310_294"/>
</filter>
<filter id="filter2_f_3310_294" x="134.202" y="-229.481" width="462.52" height="458.528" filterUnits="userSpaceOnUse" color-interpolation-filters="sRGB">
<feFlood flood-opacity="0" result="BackgroundImageFix"/>
<feBlend mode="normal" in="SourceGraphic" in2="BackgroundImageFix" result="shape"/>
<feGaussianBlur stdDeviation="53.1314" result="effect1_foregroundBlur_3310_294"/>
</filter>
<pattern id="pattern0" patternContentUnits="objectBoundingBox" width="1" height="1.6">
<use xlink:href="#image0_3310_294" transform="scale(0.0005 0.0008)"/>
</pattern>
<linearGradient id="paint0_linear_3310_294" x1="-3.901e-06" y1="83" x2="531" y2="355" gradientUnits="userSpaceOnUse">
<stop/>
<stop offset="0.706073" stop-color="#404040" stop-opacity="0.293927"/>
<stop offset="1" stop-color="#050505" stop-opacity="0"/>
</linearGradient>
</defs>
</svg>
