<svg width="37" height="35" viewBox="0 0 37 35" fill="none" xmlns="http://www.w3.org/2000/svg">
<path d="M17.4609 8.50716L21.6109 4.14689C21.8414 3.90465 22.1131 3.73163 22.426 3.62781C22.7389 3.52399 23.0601 3.50669 23.3894 3.5759L24.6739 3.8614C23.7846 4.96877 23.0848 5.97232 22.5742 6.87206C22.0637 7.7718 21.5697 8.86187 21.0921 10.1423L17.4609 8.50716ZM22.5248 10.869C22.9036 9.62318 23.4181 8.4466 24.0682 7.33923C24.719 6.23186 25.5056 5.1937 26.4278 4.22475C27.8769 2.70212 29.532 1.56429 31.3929 0.811282C33.2537 0.0589616 34.9911 -0.170126 36.605 0.12402C36.8849 1.81968 36.6709 3.64511 35.9627 5.60031C35.2546 7.55552 34.176 9.29443 32.7268 10.8171C31.821 11.7687 30.833 12.5951 29.7625 13.2962C28.6921 13.9966 27.5641 14.5458 26.3784 14.9438L22.5248 10.869ZM29.3426 7.7545C29.7214 8.15246 30.1867 8.35144 30.7388 8.35144C31.2901 8.35144 31.7552 8.15246 32.1339 7.7545C32.5127 7.35654 32.7021 6.86756 32.7021 6.28758C32.7021 5.70828 32.5127 5.21966 32.1339 4.82169C31.7552 4.42373 31.2901 4.22475 30.7388 4.22475C30.1867 4.22475 29.7214 4.42373 29.3426 4.82169C28.9638 5.21966 28.7745 5.70828 28.7745 6.28758C28.7745 6.86756 28.9638 7.35654 29.3426 7.7545ZM28.6509 20.2384L27.07 16.4231C28.2886 15.9214 29.3304 15.4023 30.1953 14.8659C31.0596 14.3295 32.0186 13.5941 33.0726 12.6598L33.3196 14.0094C33.3855 14.3555 33.369 14.6974 33.2702 15.0351C33.1714 15.3722 33.0067 15.6618 32.7762 15.9041L28.6509 20.2384ZM19.0419 14.1911C19.6182 13.5855 20.3181 13.2782 21.1415 13.2692C21.9649 13.2609 22.6648 13.5595 23.2412 14.1651C23.8176 14.7707 24.1058 15.5061 24.1058 16.3712C24.1058 17.2364 23.8176 17.9717 23.2412 18.5773C22.8295 19.0099 22.1421 19.3819 21.1791 19.6933C20.2154 20.0048 18.8854 20.2816 17.1892 20.5239C17.4198 18.7417 17.6832 17.3488 17.9797 16.3453C18.2761 15.3417 18.6302 14.6237 19.0419 14.1911V14.1911Z" fill="white"/>
<path d="M31.1404 27.2789L17.5815 27.2927C16.992 27.2933 16.5009 27.0973 16.1083 26.7047C15.7157 26.3121 15.7598 25.8973 15.7604 25.3078L15.8479 23.9964C16.0227 23.1221 16.5506 23.0953 18.2117 23.0079C19.2852 22.9514 20.5946 23.0085 21.1841 23.0079C21.7736 23.0073 22.4081 23.0079 24.0691 23.0953C25.0658 23.1478 24.9434 23.0953 27.0416 23.0953L31.3254 23.0079C31.8658 23.0073 32.5065 23.1162 32.8991 23.5324C33.2917 23.9506 33.2064 24.6731 33.2058 25.2135C33.2053 25.7539 33.2296 26.1743 32.8116 26.5923C32.3936 27.0103 31.6808 27.2784 31.1404 27.2789Z" fill="white"/>
<path d="M10.1564 4.03458C10.5224 3.65286 10.9796 3.46199 11.5279 3.46199C12.0775 3.46199 12.5519 3.67021 12.9512 4.08664C13.3504 4.50306 13.55 4.99792 13.55 5.5712C13.55 6.1431 13.3504 6.63726 12.9512 7.05369L5.21577 15.122L13.0011 23.2423C13.3671 23.6241 13.5421 24.1016 13.5261 24.6748C13.5088 25.2467 13.3172 25.7235 12.9512 26.1053C12.5852 26.487 12.1194 26.6779 11.5538 26.6779C10.9882 26.6779 10.5224 26.487 10.1564 26.1053L0.973774 16.5274C0.574527 16.111 0.374903 15.6252 0.374903 15.0699C0.374903 14.5147 0.574527 14.0289 0.973774 13.6124L10.1564 4.03458Z" fill="white"/>
<path d="M31.1404 27.2789L17.5815 27.2927C16.992 27.2933 16.5009 27.0973 16.1083 26.7047C15.7157 26.3121 15.7598 25.8973 15.7604 25.3078L15.8479 23.9964C16.0227 23.1221 16.5506 23.0953 18.2117 23.0079C19.2852 22.9514 20.5946 23.0085 21.1841 23.0079C21.7736 23.0073 22.4081 23.0079 24.0691 23.0953C25.0658 23.1478 24.9434 23.0953 27.0416 23.0953L31.3254 23.0079C31.8658 23.0073 32.5065 23.1162 32.8991 23.5324C33.2917 23.9506 33.2064 24.6731 33.2058 25.2135C33.2053 25.7539 33.2296 26.1743 32.8116 26.5923C32.3936 27.0103 31.6808 27.2784 31.1404 27.2789Z" fill="white"/>
</svg>
